<?xml version="1.0" encoding="UTF-8" standalone="no"?>
<!-- Uploaded to: SVG Repo, www.svgrepo.com, Generator: SVG Repo Mixer Tools -->

<svg
   fill="#000000"
   width="800"
   height="800"
   viewBox="0 0 36 36"
   version="1.1"
   preserveAspectRatio="xMidYMid"
   id="svg5"
   xml:space="preserve"
   xmlns="http://www.w3.org/2000/svg"
   xmlns:svg="http://www.w3.org/2000/svg"><defs
     id="defs5" /><title
     id="title1">group-solid</title><rect
     x="0"
     y="36"
     width="36"
     height="36"
     fill-opacity="0"
     id="rect30" /><rect
     x="-6.1839819e-07"
     y="1.4210855e-14"
     width="36"
     height="36"
     fill-opacity="0"
     id="rect62" /><path
     id="path63"
     style="font-variation-settings:'wght' 470;opacity:1;fill:#c0c8e4;fill-opacity:0.15;stroke:none;stroke-width:1.18277;stroke-dasharray:none;stroke-dashoffset:0;stroke-opacity:1"
     d="M 17.775,4.2655934 A 3.0653641,3.0653641 0 0 0 14.714385,7.160535 5.072022,5.072022 0 0 1 15.049424,7.663181 6.4690309,6.4690309 0 0 1 17.775,7.060955 6.4690309,6.4690309 0 0 1 20.63417,7.727078 5.072022,5.072022 0 0 1 20.839922,7.380701 3.0653641,3.0653641 0 0 0 20.840361,7.330951 3.0653641,3.0653641 0 0 0 17.775,4.2655894 Z m 11.799668,0.10793 a 3.0653641,3.0653641 0 0 0 -2.391153,1.1473236 5.072022,5.072022 0 0 1 2.982657,4.621729 5.072022,5.072022 0 0 1 -0.0092,0.305859 3.0653641,3.0653641 0 0 0 2.483086,-3.009551 3.0653641,3.0653641 0 0 0 -3.065361,-3.0653606 z M 6.2838278,4.4509534 A 3.0653641,3.0653641 0 0 0 3.2184665,7.516314 3.0653641,3.0653641 0 0 0 5.6050485,10.505562 5.072022,5.072022 0 0 1 5.5969585,10.220005 5.072022,5.072022 0 0 1 8.6497514,5.567251 3.0653641,3.0653641 0 0 0 6.2838237,4.4509534 Z M 29.803271,12.026685 a 5.072022,5.072022 0 0 1 -2.556386,2.70835 11.416011,11.416011 0 0 1 5.557851,3.049365 l 0.316055,0.368613 v 1.147149 h 0.454482 A 1.0521011,1.0521011 0 0 0 34.647539,18.26815 V 14.039644 L 34.486699,13.83855 A 6.4198276,6.4198276 0 0 0 29.803271,12.026685 Z M 5.9603024,12.105175 A 6.4935416,6.4935416 0 0 0 1.680029,13.916074 L 1.5125094,14.10363 v 4.241953 a 1.0521011,1.0521011 0 0 0 1.0721778,1.032012 h 0.2615625 v -1.22458 L 3.1623044,17.784402 A 11.416011,11.416011 0 0 1 8.4748532,14.792869 5.072022,5.072022 0 0 1 5.9603024,12.105173 Z" /><path
     id="path10"
     style="fill:#c0c8e4;fill-opacity:1"
     d="M 17.775,9.0599414 A 4.4699998,4.4699998 0 0 0 13.304971,13.529971 4.4699998,4.4699998 0 0 0 17.775,18 4.4699998,4.4699998 0 0 0 22.245029,13.529971 4.4699998,4.4699998 0 0 0 17.775,9.0599414 Z M 18.015029,20.37999 a 9.69,9.69 0 0 0 -7.11,2.7 l -0.250049,0.28002 v 6.32997 A 1.57,1.57 0 0 0 12.255029,31.23 H 23.744971 A 1.57,1.57 0 0 0 25.34502,29.68998 V 23.379961 L 25.10499,23.07999 a 9.58,9.58 0 0 0 -7.089961,-2.7 z" /><path
     id="path9"
     style="fill:#c0c8e4;fill-opacity:0.15"
     d="M 25.157637,6.0947754 A 4.09,4.09 0 0 0 21.375,8.0799609 a 6.53,6.53 0 0 1 2.95998,5.4399901 6.54,6.54 0 0 1 0,0.690029 4.09,4.09 0 0 0 0.579991,0.05001 h 0.190019 a 4.09,4.09 0 0 0 0.05265,-8.1652146 z m -14.045186,0.03665 A 4.09,4.09 0 1 0 11.004961,14.31 v -0.03999 h 0.30999 a 6.45,6.45 0 0 1 3.11001,-6.2900686 4.09,4.09 0 0 0 -3.31251,-1.848516 z m 13.7025,10.0585546 c -0.364129,0.001 -0.727888,0.02109 -1.089931,0.06003 -0.457911,0.966904 -1.144384,1.807737 -2.00004,2.449951 1.907978,0.527848 3.636389,1.564948 5.00001,3.000059 l 0.249961,0.279931 0.54,0.620069 v 4.70997 H 31.455 V 24.982559 18.99 l -0.209971,-0.28002 c -1.701849,-1.694236 -4.030244,-2.606733 -6.430078,-2.52 z M 11.03502,16.21995 a 8.67,8.67 0 0 0 -6.4299907,2.52 L 4.365,19.019971 v 8.28 H 8.4449707 V 22.60002 L 8.9949902,21.979951 9.2449512,21.69 a 11,11 0 0 1 4.7100588,-2.860049 6.59,6.59 0 0 1 -2.050049,-2.61 z" /></svg>
