<?xml version="1.0" encoding="UTF-8" standalone="no"?>
<!-- Uploaded to: SVG Repo, www.svgrepo.com, Generator: SVG Repo Mixer Tools -->

<svg
   fill="#000000"
   width="800"
   height="800"
   viewBox="0 0 36 36"
   version="1.1"
   preserveAspectRatio="xMidYMid"
   id="svg5"
   xml:space="preserve"
   sodipodi:docname="closed.svg"
   inkscape:version="1.4.2 (ebf0e940, 2025-05-08)"
   xmlns:inkscape="http://www.inkscape.org/namespaces/inkscape"
   xmlns:sodipodi="http://sodipodi.sourceforge.net/DTD/sodipodi-0.dtd"
   xmlns="http://www.w3.org/2000/svg"
   xmlns:svg="http://www.w3.org/2000/svg"
   xmlns:rdf="http://www.w3.org/1999/02/22-rdf-syntax-ns#"
   xmlns:cc="http://creativecommons.org/ns#"
   xmlns:dc="http://purl.org/dc/elements/1.1/"><sodipodi:namedview
     id="namedview1"
     pagecolor="#ffffff"
     bordercolor="#000000"
     borderopacity="0.25"
     inkscape:showpageshadow="2"
     inkscape:pageopacity="0.0"
     inkscape:pagecheckerboard="0"
     inkscape:deskcolor="#d1d1d1"
     inkscape:zoom="0.46460515"
     inkscape:cx="370.20683"
     inkscape:cy="335.76899"
     inkscape:window-width="1472"
     inkscape:window-height="895"
     inkscape:window-x="0"
     inkscape:window-y="33"
     inkscape:window-maximized="1"
     inkscape:current-layer="svg5" /><defs
     id="defs5" /><title
     id="title1">group-solid</title><rect
     x="0"
     y="36"
     width="36"
     height="36"
     fill-opacity="0"
     id="rect30" /><rect
     x="-6.1839819e-07"
     y="1.4210855e-14"
     width="36"
     height="36"
     fill-opacity="0"
     id="rect62" /><path
     id="path63"
     style="font-variation-settings:'wght' 470;opacity:1;fill:#c0c8e4;fill-opacity:0.15;stroke:none;stroke-width:1.18277;stroke-dasharray:none;stroke-dashoffset:0;stroke-opacity:1"
     d="M 17.775 4.2655957 A 3.0653641 3.0653641 0 0 0 14.714385 7.1605371 A 5.072022 5.072022 0 0 1 15.049424 7.6631836 A 6.4690309 6.4690309 0 0 1 17.775 7.060957 A 6.4690309 6.4690309 0 0 1 20.63417 7.7270801 A 5.072022 5.072022 0 0 1 20.839922 7.3807031 A 3.0653641 3.0653641 0 0 0 20.840361 7.330957 A 3.0653641 3.0653641 0 0 0 17.775 4.2655957 z M 6.2838281 4.450957 A 3.0653641 3.0653641 0 0 0 3.2184668 7.5163184 A 3.0653641 3.0653641 0 0 0 5.6050488 10.505566 A 5.072022 5.072022 0 0 1 5.5969629 10.22001 A 5.072022 5.072022 0 0 1 8.6497559 5.5672559 A 3.0653641 3.0653641 0 0 0 6.2838281 4.450957 z M 11.112451 6.1314258 A 4.09 4.09 0 1 0 11.004961 14.31 L 11.004961 14.27001 L 11.314951 14.27001 A 6.45 6.45 0 0 1 14.424961 7.9799414 A 4.09 4.09 0 0 0 11.112451 6.1314258 z M 23.972871 6.1893457 A 4.09 4.09 0 0 0 21.375 8.0799609 A 6.53 6.53 0 0 1 21.788701 8.3736035 L 23.972871 6.1893457 z M 32.411162 6.2766211 L 29.96376 8.7240234 A 5.072022 5.072022 0 0 1 30.166172 10.142578 A 5.072022 5.072022 0 0 1 30.156943 10.448437 A 3.0653641 3.0653641 0 0 0 32.640029 7.4388867 A 3.0653641 3.0653641 0 0 0 32.411162 6.2766211 z M 17.775 9.0599414 A 4.4699998 4.4699998 0 0 0 13.304971 13.529971 A 4.4699998 4.4699998 0 0 0 14.094932 16.067373 L 20.312402 9.8499023 A 4.4699998 4.4699998 0 0 0 17.775 9.0599414 z M 28.953105 9.7347656 L 24.459961 14.227822 A 4.09 4.09 0 0 0 24.914971 14.25999 L 25.10499 14.25999 A 4.09 4.09 0 0 0 28.953105 9.7347656 z M 29.803271 12.026689 A 5.072022 5.072022 0 0 1 27.246885 14.735039 A 11.416011 11.416011 0 0 1 32.804736 17.784404 L 33.120791 18.153018 L 33.120791 19.300166 L 33.575273 19.300166 A 1.0521011 1.0521011 0 0 0 34.647539 18.268154 L 34.647539 14.039648 L 34.486699 13.838555 A 6.4198276 6.4198276 0 0 0 29.803271 12.026689 z M 5.9603027 12.105176 A 6.4935416 6.4935416 0 0 0 1.6800293 13.916074 L 1.5125098 14.103633 L 1.5125098 18.345586 A 1.0521011 1.0521011 0 0 0 2.5846875 19.377598 L 2.84625 19.377598 L 2.84625 18.153018 L 3.1623047 17.784404 A 11.416011 11.416011 0 0 1 8.4748535 14.792871 A 5.072022 5.072022 0 0 1 5.9603027 12.105176 z M 24.814951 16.18998 C 24.450822 16.19098 24.087063 16.21107 23.72502 16.25001 C 23.267109 17.216914 22.580636 18.057747 21.72498 18.699961 C 23.632958 19.227809 25.361369 20.264909 26.72499 21.70002 L 26.974951 21.979951 L 27.514951 22.60002 L 27.514951 27.30999 L 31.455 27.30999 L 31.455 24.982559 L 31.455 18.99 L 31.245029 18.70998 C 29.54318 17.015744 27.214785 16.103247 24.814951 16.18998 z M 11.03502 16.219951 A 8.67 8.67 0 0 0 4.6050293 18.739951 L 4.365 19.019971 L 4.365 25.797305 L 12.651768 17.510449 A 6.59 6.59 0 0 1 11.904961 16.219951 L 11.03502 16.219951 z M 18.316055 20.371729 L 10.65498 28.032803 L 10.65498 29.68998 A 1.57 1.57 0 0 0 12.255029 31.23 L 23.744971 31.23 A 1.57 1.57 0 0 0 25.34502 29.68998 L 25.34502 23.379961 L 25.10499 23.07999 A 9.58 9.58 0 0 0 18.316143 20.371729 A 9.58 9.58 0 0 0 18.316055 20.371729 z " /><rect
     style="fill:#c0c8e4;fill-opacity:1;stroke:none;stroke-width:0.170079"
     id="rect1"
     width="33.266712"
     height="2.8647425"
     x="-15.837873"
     y="22.909794"
     ry="0.77817494"
     transform="rotate(-45)" /><metadata
     id="metadata2"><rdf:RDF><cc:Work
         rdf:about=""><dc:title>group-solid</dc:title></cc:Work></rdf:RDF></metadata></svg>
